<?xml version="1.0" encoding="UTF-8"?>
<svg width="400" height="600" xmlns="http://www.w3.org/2000/svg">
    <rect x="20" y="120" width="360" height="360" fill="#d3d3d3" stroke="#a9a9a9" stroke-width="10" rx="20" ry="20" />
    <rect x="110" y="140" width="20" height="400" fill="#d4a373" rx="10" ry="10" />
    <rect x="110" y="140" width="20" height="300" fill="#8b4513" rx="10" ry="10" />
    <polygon points="120,180 123,190 130,190 124,195 126,205 120,200 114,205 116,195 110,190 117,190" fill="#d2691e" />
    <path d="M120 220 
             Q 118 215, 115 220 
             Q 113 225, 120 230 
             Q 127 225, 125 220 
             Q 123 215, 120 220 
             Z" fill="#ffa07a" />
    <circle cx="120" cy="260" r="3" fill="#cd853f" />
    <polygon points="120,300 123,310 130,310 124,315 126,325 120,320 114,325 116,315 110,310 117,310" fill="#ffd700" />
    <path d="M120 340 
             Q 118 335, 115 340 
             Q 113 345, 120 350 
             Q 127 345, 125 340 
             Q 123 335, 120 340 
             Z" fill="#daa520" />
    <rect x="190" y="140" width="20" height="400" fill="#d4a373" rx="10" ry="10" />
    <rect x="190" y="140" width="20" height="300" fill="#ff6f91" rx="10" ry="10" />
    <polygon points="200,190 203,200 210,200 204,205 206,215 200,210 194,215 196,205 190,200 197,200" fill="#ffb6c1" />
    <path d="M200 240 
             Q 198 235, 195 240 
             Q 193 245, 200 250 
             Q 207 245, 205 240 
             Q 203 235, 200 240 
             Z" fill="#ff69b4" />
    <path d="M200 360 
             Q 198 355, 195 360 
             Q 193 365, 200 370 
             Q 207 365, 205 360 
             Q 203 355, 200 360 
             Z" fill="#ff7f50" />
    <rect x="270" y="140" width="20" height="400" fill="#d4a373" rx="10" ry="10" />
    <rect x="270" y="140" width="20" height="300" fill="#f5f5f5" rx="10" ry="10" />
    <polygon points="280,180 283,190 290,190 284,195 286,205 280,200 274,205 276,195 270,190 277,190" fill="#dcdcdc" />
    <path d="M280 230 
             Q 278 225, 275 230 
             Q 273 235, 280 240 
             Q 287 235, 285 230 
             Q 283 225, 280 230 
             Z" fill="#c0c0c0" />
    <circle cx="280" cy="270" r="3" fill="#f0e68c" />
    <polygon points="280,310 283,320 290,320 284,325 286,335 280,330 274,335 276,325 270,320 277,320" fill="#ffdab9" />
    <path d="M280 350 
             Q 278 345, 275 350 
             Q 273 355, 280 360 
             Q 287 355, 285 350 
             Q 283 345, 280 350 
             Z" fill="#faebd7" />
    <path d="m8 483
             c-1.5355 0-3.0784 0.5-4.25 1.7
             c-2.3431 2.4-2.2788 6.1 0 8.5
             l9.25 9.8 9.25-9.8
             c2.279-2.4 2.343-6.1 0-8.5
             c-2.343-2.3-6.157-2.3-8.5 0
             l-0.75 0.8-0.75-0.8
             c-1.172-1.2-2.7145-1.7-4.25-1.7z" fill="#e74c3c" transform="rotate(270 7 300)" />
    <text x="270" y="405" font-size="14" text-anchor="middle" fill="black" transform="rotate(-90, 200, 400)">Name</text>
    <text x="340" y="405" font-size="14" text-anchor="middle" fill="black" transform="rotate(-90, 200, 400)">Name</text>
</svg>